<mxfile host="app.diagrams.net" agent="Mozilla/5.0 (Macintosh; Intel Mac OS X 10_15_7) AppleWebKit/605.1.15 (KHTML, like Gecko) Version/18.3.1 Safari/605.1.15" version="26.1.2">
  <diagram name="Page-1" id="LeY8MRwgArn7H1RUk7Jp">
    <mxGraphModel dx="2893" dy="1174" grid="1" gridSize="10" guides="1" tooltips="1" connect="1" arrows="1" fold="1" page="1" pageScale="1" pageWidth="850" pageHeight="1100" math="0" shadow="0">
      <root>
        <mxCell id="0" />
        <mxCell id="1" parent="0" />
        <mxCell id="4VW1GgaC4AIy9kXa43JC-1" value="Test 1" style="whiteSpace=wrap;html=1;aspect=fixed;" vertex="1" parent="1">
          <mxGeometry x="220" y="360" width="80" height="80" as="geometry" />
        </mxCell>
        <mxCell id="4VW1GgaC4AIy9kXa43JC-2" value="Test 2" style="whiteSpace=wrap;html=1;aspect=fixed;" vertex="1" parent="1">
          <mxGeometry x="490" y="360" width="80" height="80" as="geometry" />
        </mxCell>
        <mxCell id="4VW1GgaC4AIy9kXa43JC-4" style="edgeStyle=orthogonalEdgeStyle;rounded=0;orthogonalLoop=1;jettySize=auto;html=1;entryX=0.5;entryY=1;entryDx=0;entryDy=0;" edge="1" parent="1" source="4VW1GgaC4AIy9kXa43JC-3" target="4VW1GgaC4AIy9kXa43JC-2">
          <mxGeometry relative="1" as="geometry" />
        </mxCell>
        <mxCell id="4VW1GgaC4AIy9kXa43JC-5" style="edgeStyle=orthogonalEdgeStyle;rounded=0;orthogonalLoop=1;jettySize=auto;html=1;entryX=0.5;entryY=1;entryDx=0;entryDy=0;" edge="1" parent="1" source="4VW1GgaC4AIy9kXa43JC-3" target="4VW1GgaC4AIy9kXa43JC-1">
          <mxGeometry relative="1" as="geometry" />
        </mxCell>
        <mxCell id="4VW1GgaC4AIy9kXa43JC-3" value="Test 2" style="whiteSpace=wrap;html=1;aspect=fixed;" vertex="1" parent="1">
          <mxGeometry x="380" y="510" width="80" height="80" as="geometry" />
        </mxCell>
      </root>
    </mxGraphModel>
  </diagram>
</mxfile>
